<svg xmlns="http://www.w3.org/2000/svg" width="600" height="200" viewBox="0 0 600 200">
  <g transform="matrix(1 0 0 1 300 100)">
    <rect style="stroke: none; stroke-width: 1; stroke-dasharray: none; stroke-linecap: butt; stroke-dashoffset: 0; stroke-linejoin: miter; stroke-miterlimit: 4; fill: rgb(255,255,255); fill-rule: nonzero; opacity: 1; visibility: hidden;" vector-effect="non-scaling-stroke" x="-300" y="-100" rx="0" ry="0" width="600" height="200" />
  </g>
  <g transform="matrix(0.77 0 0 0.77 93.45 100)">
    <path style="stroke: none; stroke-width: 1; stroke-dasharray: none; stroke-linecap: butt; stroke-dashoffset: 0; stroke-linejoin: miter; stroke-miterlimit: 4; fill: rgb(28,85,255); fill-rule: nonzero; opacity: 1;" vector-effect="non-scaling-stroke" transform=" translate(-88.39, -88.39)" d="M 88.385 88.385 M 0 88.385 C 0 137.19868761379468 39.57131238620532 176.77 88.385 176.77 C 137.19868761379468 176.77 176.77 137.19868761379468 176.77 88.385 C 176.77 39.57131238620532 137.19868761379468 0 88.385 0 C 39.571312386205335 0 0 39.57131238620531 0 88.38499999999999" stroke-linecap="round" />
  </g>
  <g transform="matrix(1.28 0 0 1.28 94.58 100)">
    <path style="stroke: none; stroke-width: 1; stroke-dasharray: none; stroke-linecap: butt; stroke-dashoffset: 0; stroke-linejoin: miter; stroke-miterlimit: 4; fill: rgb(255,255,255); fill-rule: nonzero; opacity: 1;" vector-effect="non-scaling-stroke" transform=" translate(-50.54, -51.46)" d="M 91.019 40.902 C 89.07400000000001 40.902 87.498 39.326 87.498 37.382 C 87.498 36.827 87.638 36.309 87.867 35.842 C 84.048 26.724999999999998 76.994 19.298 68.138 15.006 L 68.138 26.820999999999998 L 61.10000000000001 33.861 L 63.44800000000001 37.382 L 78.69900000000001 37.382 L 78.69900000000001 46.181 L 90.60700000000001 46.181 C 90.53500000000001 45.678999999999995 90.49000000000001 45.169999999999995 90.40700000000001 44.672 L 93.86300000000001 44.026999999999994 C 94.27500000000002 46.44899999999999 94.53700000000002 48.92099999999999 94.53700000000002 51.459999999999994 C 94.53700000000002 75.75899999999999 74.84000000000002 95.45599999999999 50.54200000000002 95.45599999999999 C 31.085000000000022 95.45599999999999 14.621000000000024 82.80999999999999 8.815000000000026 65.29999999999998 C 7.490000000000026 64.79599999999998 6.544000000000026 63.52299999999998 6.544000000000026 62.02099999999999 C 6.544000000000026 60.076999999999984 8.120000000000026 58.499999999999986 10.064000000000027 58.499999999999986 C 12.007000000000026 58.499999999999986 13.584000000000026 60.075999999999986 13.584000000000026 62.02099999999999 C 13.584000000000026 63.100999999999985 13.088000000000026 64.05199999999999 12.323000000000027 64.69899999999998 C 13.103000000000026 66.95199999999998 14.097000000000026 69.10499999999999 15.243000000000027 71.15799999999999 L 25.90200000000003 62.02099999999999 L 25.90200000000003 49.700999999999986 L 36.46200000000003 49.700999999999986 L 36.46200000000003 42.65999999999998 L 29.422000000000033 42.65999999999998 L 29.422000000000033 35.62099999999998 L 13.284 35.62099999999998 C 11.213000000000001 40.48499999999998 10.063 45.83799999999998 10.063 51.45999999999998 C 10.063 52.40899999999998 10.141 53.33899999999998 10.205 54.27199999999998 L 6.718 54.92099999999998 C 6.628 53.77499999999998 6.543 52.62699999999998 6.543 51.45699999999998 C 6.543 27.15899999999998 26.241 7.4599999999999795 50.541 7.4599999999999795 C 68.58099999999999 7.4599999999999795 84.03399999999999 18.339999999999982 90.823 33.87699999999998 C 90.88799999999999 33.87399999999998 90.94999999999999 33.85799999999998 91.01799999999999 33.85799999999998 C 92.96099999999998 33.85799999999998 94.53599999999999 35.43399999999998 94.53599999999999 37.378999999999984 C 94.536 39.326 92.962 40.902 91.019 40.902 z M 75.179 40.902 L 64.618 40.902 L 64.618 51.461 L 75.179 51.461 L 75.179 40.902 z M 91.019 51.461 C 91.019 50.867 90.961 50.288 90.93400000000001 49.702 L 78.698 49.702 L 78.698 54.980999999999995 L 71.657 54.980999999999995 L 71.639 64.39999999999999 L 68.64399999999999 67.725 L 80.72 78.37 C 87.105 71.215 91.019 61.807 91.019 51.461 z M 17.288 74.433 C 24.583 84.995 36.731 91.94000000000001 50.541 91.94000000000001 C 61.251999999999995 91.94000000000001 70.965 87.75000000000001 78.204 80.95600000000002 L 66.394 70.397 L 62.86 74.34 L 54.061 74.34 L 54.061 77.861 L 36.462 77.861 L 36.462 72.581 L 28.542 64.661 L 27.662000000000003 65.542 L 17.288 74.433 z M 50.541 74.34 L 50.541 63.781 L 39.980999999999995 63.781 L 39.980999999999995 74.34 L 50.541 74.34 z M 29.422 53.22 L 29.422 60.022 L 36.462 67.06099999999999 L 36.462 60.260999999999996 L 54.06100000000001 60.260999999999996 L 54.06100000000001 70.821 L 61.1 70.821 L 68.138 63.782 L 68.138 54.98 L 61.1 54.98 L 61.1 40.902 L 57.581 35.623000000000005 L 47.021 35.623000000000005 L 47.021 42.662000000000006 L 39.981 42.662000000000006 L 39.981 53.22 L 29.422 53.22 z M 32.941 35.623 L 32.941 39.141999999999996 L 43.501000000000005 39.141999999999996 L 43.501000000000005 28.581999999999994 L 39.98 28.581999999999994 L 32.94 28.581999999999994 L 32.941 35.623 L 32.941 35.623 z M 36.462 13.551 C 27.269000000000005 16.968 19.634000000000004 23.588 14.988000000000003 32.103 L 29.422000000000004 32.103 L 29.422000000000004 25.062 L 29.422000000000004 25.062 L 36.462 25.062 L 36.462 13.551 z M 64.618 13.529 C 60.233999999999995 11.896 55.498 10.985 50.541 10.985 C 46.879999999999995 10.985 43.352 11.514999999999999 39.98 12.423 L 39.98 25.061999999999998 L 47.019999999999996 25.061999999999998 L 47.019999999999996 32.102999999999994 L 57.580999999999996 32.102999999999994 L 64.618 25.061999999999994 L 64.618 13.529 z" stroke-linecap="round" />
  </g>
  <g transform="matrix(0.77 0 0 0.77 375.72 99.5)">
    <path style="stroke: none; stroke-width: 0; stroke-dasharray: none; stroke-linecap: butt; stroke-dashoffset: 0; stroke-linejoin: miter; stroke-miterlimit: 4; fill: rgb(28,85,255); fill-rule: nonzero; opacity: 1;" vector-effect="non-scaling-stroke" transform=" translate(-234.2, 29.65)" d="M 39 -54.6 Q 46.5 -54.6 52.65 -51.15 Q 58.8 -47.7 62.3 -41.45 Q 65.8 -35.2 65.8 -26.9 L 65.8 -26.9 Q 65.8 -18.6 62.3 -12.35 Q 58.8 -6.1 52.65 -2.65 Q 46.5 0.8 39 0.8 L 39 0.8 Q 28.7 0.8 22.8 -5.7 L 22.8 -5.7 L 22.8 19.4 L 7.2 19.4 L 7.2 -53.8 L 22.1 -53.8 L 22.1 -47.6 Q 27.9 -54.6 39 -54.6 L 39 -54.6 Z M 36.3 -12 Q 42.3 -12 46.15 -16.05 Q 50 -20.1 50 -26.9 L 50 -26.9 Q 50 -33.7 46.15 -37.75 Q 42.3 -41.8 36.3 -41.8 L 36.3 -41.8 Q 30.3 -41.8 26.45 -37.75 Q 22.6 -33.7 22.6 -26.9 L 22.6 -26.9 Q 22.6 -20.1 26.45 -16.05 Q 30.3 -12 36.3 -12 L 36.3 -12 Z M 97 -54.6 Q 109.5 -54.6 116.2 -48.65 Q 122.9 -42.7 122.9 -30.7 L 122.9 -30.7 L 122.9 0 L 108.3 0 L 108.3 -6.7 Q 103.9 0.8 91.9 0.8 L 91.9 0.8 Q 85.7 0.8 81.15 -1.3 Q 76.6 -3.4 74.2 -7.1 Q 71.8 -10.8 71.8 -15.5 L 71.8 -15.5 Q 71.8 -23 77.45 -27.3 Q 83.1 -31.6 94.9 -31.6 L 94.9 -31.6 L 107.3 -31.6 Q 107.3 -36.7 104.2 -39.45 Q 101.1 -42.2 94.9 -42.2 L 94.9 -42.2 Q 90.6 -42.2 86.45 -40.85 Q 82.3 -39.5 79.4 -37.2 L 79.4 -37.2 L 73.8 -48.1 Q 78.2 -51.2 84.35 -52.9 Q 90.5 -54.6 97 -54.6 L 97 -54.6 Z M 95.8 -9.7 Q 99.8 -9.7 102.9 -11.55 Q 106 -13.4 107.3 -17 L 107.3 -17 L 107.3 -22.5 L 96.6 -22.5 Q 87 -22.5 87 -16.2 L 87 -16.2 Q 87 -13.2 89.35 -11.45 Q 91.7 -9.7 95.8 -9.7 L 95.8 -9.7 Z M 151.9 -46.7 Q 154.7 -50.6 159.45 -52.6 Q 164.2 -54.6 170.4 -54.6 L 170.4 -54.6 L 170.4 -40.2 Q 167.8 -40.4 166.9 -40.4 L 166.9 -40.4 Q 160.2 -40.4 156.4 -36.65 Q 152.6 -32.9 152.6 -25.4 L 152.6 -25.4 L 152.6 0 L 137 0 L 137 -53.8 L 151.9 -53.8 L 151.9 -46.7 Z M 201.1 -54.6 Q 213.6 -54.6 220.3 -48.65 Q 227 -42.7 227 -30.7 L 227 -30.7 L 227 0 L 212.4 0 L 212.4 -6.7 Q 208 0.8 196 0.8 L 196 0.8 Q 189.8 0.8 185.25 -1.3 Q 180.7 -3.4 178.3 -7.1 Q 175.9 -10.8 175.9 -15.5 L 175.9 -15.5 Q 175.9 -23 181.55 -27.3 Q 187.2 -31.6 199 -31.6 L 199 -31.6 L 211.4 -31.6 Q 211.4 -36.7 208.3 -39.45 Q 205.2 -42.2 199 -42.2 L 199 -42.2 Q 194.7 -42.2 190.55 -40.85 Q 186.4 -39.5 183.5 -37.2 L 183.5 -37.2 L 177.9 -48.1 Q 182.3 -51.2 188.45 -52.9 Q 194.6 -54.6 201.1 -54.6 L 201.1 -54.6 Z M 199.9 -9.7 Q 203.9 -9.7 207 -11.55 Q 210.1 -13.4 211.4 -17 L 211.4 -17 L 211.4 -22.5 L 200.7 -22.5 Q 191.1 -22.5 191.1 -16.2 L 191.1 -16.2 Q 191.1 -13.2 193.45 -11.45 Q 195.8 -9.7 199.9 -9.7 L 199.9 -9.7 Z M 273.8 -54.6 Q 283.8 -54.6 289.95 -48.6 Q 296.1 -42.6 296.1 -30.8 L 296.1 -30.8 L 296.1 0 L 280.5 0 L 280.5 -28.4 Q 280.5 -34.8 277.7 -37.95 Q 274.9 -41.1 269.6 -41.1 L 269.6 -41.1 Q 263.7 -41.1 260.2 -37.45 Q 256.7 -33.8 256.7 -26.6 L 256.7 -26.6 L 256.7 0 L 241.1 0 L 241.1 -53.8 L 256 -53.8 L 256 -47.5 Q 259.1 -50.9 263.7 -52.75 Q 268.3 -54.6 273.8 -54.6 L 273.8 -54.6 Z M 336.4 0.8 Q 327.9 0.8 321.15 -2.75 Q 314.4 -6.3 310.6 -12.6 Q 306.8 -18.9 306.8 -26.9 L 306.8 -26.9 Q 306.8 -34.9 310.6 -41.2 Q 314.4 -47.5 321.15 -51.05 Q 327.9 -54.6 336.4 -54.6 L 336.4 -54.6 Q 344.9 -54.6 351.6 -51.05 Q 358.3 -47.5 362.1 -41.2 Q 365.9 -34.9 365.9 -26.9 L 365.9 -26.9 Q 365.9 -18.9 362.1 -12.6 Q 358.3 -6.3 351.6 -2.75 Q 344.9 0.8 336.4 0.8 L 336.4 0.8 Z M 336.4 -12 Q 342.4 -12 346.25 -16.05 Q 350.1 -20.1 350.1 -26.9 L 350.1 -26.9 Q 350.1 -33.7 346.25 -37.75 Q 342.4 -41.8 336.4 -41.8 L 336.4 -41.8 Q 330.4 -41.8 326.5 -37.75 Q 322.6 -33.7 322.6 -26.9 L 322.6 -26.9 Q 322.6 -20.1 326.5 -16.05 Q 330.4 -12 336.4 -12 L 336.4 -12 Z M 376.3 0 L 376.3 -53.8 L 391.9 -53.8 L 391.9 0 L 376.3 0 Z M 384.1 -61.3 Q 379.8 -61.3 377.1 -63.8 Q 374.4 -66.3 374.4 -70 L 374.4 -70 Q 374.4 -73.7 377.1 -76.2 Q 379.8 -78.7 384.1 -78.7 L 384.1 -78.7 Q 388.4 -78.7 391.1 -76.3 Q 393.8 -73.9 393.8 -70.3 L 393.8 -70.3 Q 393.8 -66.4 391.1 -63.85 Q 388.4 -61.3 384.1 -61.3 L 384.1 -61.3 Z M 445.6 -74.2 L 461.2 -74.2 L 461.2 0 L 446.3 0 L 446.3 -6.2 Q 440.5 0.8 429.5 0.8 L 429.5 0.8 Q 421.9 0.8 415.75 -2.6 Q 409.6 -6 406.1 -12.3 Q 402.6 -18.6 402.6 -26.9 L 402.6 -26.9 Q 402.6 -35.2 406.1 -41.5 Q 409.6 -47.8 415.75 -51.2 Q 421.9 -54.6 429.5 -54.6 L 429.5 -54.6 Q 439.8 -54.6 445.6 -48.1 L 445.6 -48.1 L 445.6 -74.2 Z M 432.2 -12 Q 438.1 -12 442 -16.05 Q 445.9 -20.1 445.9 -26.9 L 445.9 -26.9 Q 445.9 -33.7 442 -37.75 Q 438.1 -41.8 432.2 -41.8 L 432.2 -41.8 Q 426.2 -41.8 422.3 -37.75 Q 418.4 -33.7 418.4 -26.9 L 418.4 -26.9 Q 418.4 -20.1 422.3 -16.05 Q 426.2 -12 432.2 -12 L 432.2 -12 Z" stroke-linecap="round" />
  </g>
</svg>